<svg xmlns="http://www.w3.org/2000/svg" width="140.937" height="90.396" viewBox="0 0 140.937 90.396">
  <g id="soundcloud" transform="translate(0 -87.516)">
    <path id="SVGCleanerId_0" d="M265.788,156.229a21.6,21.6,0,0,0-8.67,1.76,39.8,39.8,0,0,0-6.3-18.554,39.358,39.358,0,0,0-14.225-13.28,38.678,38.678,0,0,0-19-4.863,34.233,34.233,0,0,0-8.439,1.079c-1.377.448-1.638,1.846-1.638,4.188v73.535c0,.268-.33.589-.127.945s.286.61.691.744l57.871.067a21.477,21.477,0,0,0,15.84-6.69,22.931,22.931,0,0,0-.042-32.241A21.69,21.69,0,0,0,265.788,156.229Z" transform="translate(-147.464 -24.023)" fill="#f7441c"/>
    <g id="Group_1" data-name="Group 1" transform="translate(59.868 97.269)">
      <path id="SVGCleanerId_0_1_" d="M265.788,156.229a21.6,21.6,0,0,0-8.67,1.76,39.8,39.8,0,0,0-6.3-18.554,39.358,39.358,0,0,0-14.225-13.28,38.678,38.678,0,0,0-19-4.863,34.233,34.233,0,0,0-8.439,1.079c-1.377.448-1.638,1.846-1.638,4.188v73.535c0,.268-.33.589-.127.945s.286.61.691.744l57.871.067a21.477,21.477,0,0,0,15.84-6.69,22.931,22.931,0,0,0-.042-32.241A21.69,21.69,0,0,0,265.788,156.229Z" transform="translate(-207.331 -121.292)" fill="#f7441c"/>
    </g>
    <path id="Path_14" data-name="Path 14" d="M284.241,162.919a22.329,22.329,0,0,0-24.627-4.93,39.8,39.8,0,0,0-6.3-18.554,39.358,39.358,0,0,0-14.225-13.28,38.678,38.678,0,0,0-19-4.863,34.247,34.247,0,0,0-8.439,1.079c-1.07.353-.577,1.1-.818,2.606a17.921,17.921,0,0,1,3.661-.187,38.684,38.684,0,0,1,19,4.863,39.358,39.358,0,0,1,14.225,13.28,39.83,39.83,0,0,1,6.3,18.554,22.329,22.329,0,0,1,24.627,4.93,22.914,22.914,0,0,1,0,32.241c-.517.524-1.053,1.012-1.6,1.471a22.521,22.521,0,0,0,7.191-4.967,22.916,22.916,0,0,0,0-32.243Z" transform="translate(-149.959 -24.023)" fill="#ff7639"/>
    <path id="Path_15" data-name="Path 15" d="M4.867,264.988a4.657,4.657,0,0,0-3.43,1.455A4.868,4.868,0,0,0,0,269.992v19.6c0,1.8.24,3.673,1.527,4.595s3.075.739,4.544.469a3.881,3.881,0,0,0,2.62-1.485c.55-.721.55-1.91.55-3.578v-19.6a4.649,4.649,0,0,0-1.155-3.548A4.128,4.128,0,0,0,4.867,264.988Z" transform="translate(0 -126.226)" fill="#f7441c"/>
    <path id="Path_16" data-name="Path 16" d="M52.029,203.908a3.782,3.782,0,0,0-3.015,1.453A4.468,4.468,0,0,0,48,208.84v45.69c0,1.3.037,2.282.949,2.938a5.214,5.214,0,0,0,3.289.982,6.083,6.083,0,0,0,3.6-.982,3.4,3.4,0,0,0,1.4-2.938V208.84a4.929,4.929,0,0,0-1.571-3.479A5.051,5.051,0,0,0,52.029,203.908Z" transform="translate(-34.14 -82.783)" fill="#f4921e"/>
    <path id="Path_17" data-name="Path 17" d="M101.565,224.74a5.411,5.411,0,0,0-3.814,1.485A5.22,5.22,0,0,0,96,229.806v42.047h0a4.455,4.455,0,0,0,1.314,2.273,8.322,8.322,0,0,0,4.181,1.386,7.947,7.947,0,0,0,4.091-1.023,3.991,3.991,0,0,0,1.964-2.982v-41.7c0-1.4-1.037-2.59-1.994-3.581A5.911,5.911,0,0,0,101.565,224.74Z" transform="translate(-68.28 -97.6)" fill="#f7441c"/>
    <path id="Path_18" data-name="Path 18" d="M158.015,130.8c-1.467-.363-2.687.065-4.107,1.287S152,135.016,152,137.222v67.587h0c0,2.476,1.331,3.715,4.62,3.715s4.62-1.238,4.62-3.715V137.222C161.24,133.436,160.279,131.295,158.015,130.8Z" transform="translate(-108.11 -30.697)" fill="#f4921e"/>
    <path id="Path_19" data-name="Path 19" d="M8.085,266.443a4.415,4.415,0,0,0-3.356-1.455,4.507,4.507,0,0,0-3.361,1.455A4.809,4.809,0,0,0,0,269.992v7.833a4.871,4.871,0,0,1,1.437-3.548,4.657,4.657,0,0,1,3.43-1.455,4.131,4.131,0,0,1,3.218,1.455,4.641,4.641,0,0,1,1.155,3.546v-7.833A4.644,4.644,0,0,0,8.085,266.443Z" transform="translate(0 -126.226)" fill="#ff7639"/>
    <path id="Path_20" data-name="Path 20" d="M55.669,205.361a4.893,4.893,0,0,0-3.571-1.453,3.844,3.844,0,0,0-3.047,1.453A4.489,4.489,0,0,0,48,208.84v7.833a4.468,4.468,0,0,1,1.014-3.479,4.193,4.193,0,0,1,3.225-1.453,4.985,4.985,0,0,1,5,4.93v-7.833A4.928,4.928,0,0,0,55.669,205.361Z" transform="translate(-34.14 -82.783)" fill="#ffb91d"/>
    <g id="Group_2" data-name="Group 2" transform="translate(27.72 127.14)">
      <path id="Path_21" data-name="Path 21" d="M97.946,386.7h0l0,.023Z" transform="translate(-97.383 -339.934)" fill="#ff7639"/>
      <path id="Path_22" data-name="Path 22" d="M105.557,226.225a5.229,5.229,0,0,0-3.71-1.485,5.757,5.757,0,0,0-3.955,1.485A5.383,5.383,0,0,0,96,229.806v7.833a5.215,5.215,0,0,1,1.751-3.581,5.089,5.089,0,0,1,3.673-1.485,6.078,6.078,0,0,1,4.061,1.485c.956.989,2.065,2.183,2.065,3.578V229.8C107.55,228.408,106.513,227.216,105.557,226.225Z" transform="translate(-96 -224.74)" fill="#ff7639"/>
    </g>
    <path id="Path_23" data-name="Path 23" d="M158.015,130.8c-1.467-.363-2.687.065-4.107,1.287S152,135.016,152,137.222v7.833a6.309,6.309,0,0,1,1.994-5.135c1.421-1.22,2.624-1.649,4.089-1.287,2.266.494,3.158,2.636,3.158,6.42V137.22C161.24,133.436,160.279,131.295,158.015,130.8Z" transform="translate(-108.11 -30.697)" fill="#ffb91d"/>
    <path id="Path_24" data-name="Path 24" d="M257.211,157.954c-.03.012-.06.021-.092.035a39.8,39.8,0,0,0-6.3-18.554,39.358,39.358,0,0,0-14.225-13.28,38.678,38.678,0,0,0-19-4.863,34.233,34.233,0,0,0-8.439,1.079c-1.377.448-1.638,1.846-1.638,4.188v73.535c0,.268-.33.589-.127.945s.286.61.691.744l5.579.007C234.168,198.112,252.152,180.362,257.211,157.954Z" transform="translate(-147.464 -24.023)" fill="#f4921e"/>
    <path id="Path_25" data-name="Path 25" d="M209.638,127.391a35.957,35.957,0,0,1,8.653-1.079,38.276,38.276,0,0,1,18.887,4.863,39.228,39.228,0,0,1,14.174,13.28,39.644,39.644,0,0,1,5.863,15.359c.164-.626.34-1.245.485-1.876-.03.012-.067.021-.1.035a39.8,39.8,0,0,0-6.3-18.554,39.339,39.339,0,0,0-14.225-13.28,38.687,38.687,0,0,0-19-4.863,34.247,34.247,0,0,0-8.439,1.079c-1.377.453-1.638,1.85-1.638,4.193v5.036C208,129.241,208.261,127.843,209.638,127.391Z" transform="translate(-147.939 -24.012)" fill="#ffb91d"/>
    <g id="Group_3" data-name="Group 3" transform="translate(93.568 89.475)">
      <circle id="Ellipse_1" data-name="Ellipse 1" cx="5.174" cy="5.174" r="5.174" transform="translate(18.189 0)" fill="#f4921e"/>
      <circle id="Ellipse_2" data-name="Ellipse 2" cx="1.398" cy="1.398" r="1.398" transform="translate(0 2.807)" fill="#f4921e"/>
      <circle id="Ellipse_3" data-name="Ellipse 3" cx="2.098" cy="2.098" r="2.098" transform="translate(7.84 10.069)" fill="#f4921e"/>
    </g>
    <g id="Group_4" data-name="Group 4" transform="translate(104.489 87.516)">
      <circle id="Ellipse_4" data-name="Ellipse 4" cx="1.818" cy="1.818" r="1.818" fill="#f7441c"/>
      <circle id="Ellipse_5" data-name="Ellipse 5" cx="1.118" cy="1.118" r="1.118" transform="translate(5.874 19.303)" fill="#f7441c"/>
      <circle id="Ellipse_6" data-name="Ellipse 6" cx="0.979" cy="0.979" r="0.979" transform="translate(14.814 18.182)" fill="#f7441c"/>
      <circle id="Ellipse_7" data-name="Ellipse 7" cx="5.595" cy="5.595" r="5.595" transform="translate(9.224 28.543)" fill="#f7441c"/>
    </g>
    <g id="Group_5" data-name="Group 5" transform="translate(126.855 98.706)">
      <circle id="Ellipse_8" data-name="Ellipse 8" cx="1.398" cy="1.398" r="1.398" fill="#ffb91d"/>
      <circle id="Ellipse_9" data-name="Ellipse 9" cx="1.398" cy="1.398" r="1.398" transform="translate(0.848 8.951)" fill="#ffb91d"/>
      <circle id="Ellipse_10" data-name="Ellipse 10" cx="0.979" cy="0.979" r="0.979" transform="translate(4.484 18.741)" fill="#ffb91d"/>
      <circle id="Ellipse_11" data-name="Ellipse 11" cx="1.818" cy="1.818" r="1.818" transform="translate(6.718 2.797)" fill="#ffb91d"/>
    </g>
  </g>
</svg>
