<svg xmlns="http://www.w3.org/2000/svg" width="140" height="99.068" viewBox="0 0 140 99.068">
  <g id="youtube" transform="translate(0 -67.393)">
    <path id="Path_26" data-name="Path 26" d="M110.924,67.393H29.076A29.076,29.076,0,0,0,0,96.469v40.915a29.076,29.076,0,0,0,29.076,29.076h81.848A29.076,29.076,0,0,0,140,137.384V96.469A29.076,29.076,0,0,0,110.924,67.393ZM91.26,118.917,52.977,137.176a1.537,1.537,0,0,1-2.2-1.387V98.13A1.537,1.537,0,0,1,53.01,96.76l38.283,19.4A1.537,1.537,0,0,1,91.26,118.917Z" fill="#f61c0d"/>
  </g>
</svg>
